<?xml version="1.0" encoding="iso-8859-1"?>
<!-- Generator: Adobe Illustrator 21.1.0, SVG Export Plug-In . SVG Version: 6.00 Build 0)  -->
<svg version="1.1" id="Calque_1" xmlns="http://www.w3.org/2000/svg" xmlns:xlink="http://www.w3.org/1999/xlink" x="0px" y="0px"
	 width="432px" height="432px" viewBox="0 0 432 432" enable-background="new 0 0 432 432" xml:space="preserve">
<g>
	<path fill="#9E7E5E" d="M376.479,220.28c-0.293-1.035-0.611-2.058-0.948-3.069c-1.602-5.06-4.213-9.556-7.593-13.198
		c-2.461-2.529-5.228-4.408-8.431-5.42c-0.913-0.289-1.844-0.516-2.807-0.409c-0.499,0.055-1.031,0.198-1.463,0.449
		c-0.753,0.438-0.926,1.302-0.426,1.993c0.278,0.384,0.644,0.729,1.034,1.01c0.582,0.421,1.222,0.77,1.836,1.161
		c1.122,0.716,2.213,1.481,3.257,2.312c1.005,0.833,1.947,1.733,2.831,2.712c1.737,1.958,3.343,4.234,4.258,6.932l0.293,0.767
		c0.523,1.43,0.999,2.885,1.417,4.364c0.37,1.477,0.639,2.977,0.86,4.497c0.193,1.518,0.411,3.063,0.372,4.611
		c-0.013,1.549-0.109,3.113-0.299,4.685c-0.182,1.818-0.64,3.577-1.204,5.279c-0.587,1.698-1.229,3.349-2.188,4.885
		c-1.16,1.88-2.429,3.596-3.875,5.059c-1.453,1.462-3.21,2.64-5.131,3.495c-2.257,0.993-4.518,1.689-6.974,1.4
		c-1.252-0.146-2.457-0.462-3.637-1.218c0.337-0.137,0.586-0.239,0.836-0.34c2.757-1.138,4.199-3.473,4.285-5.869
		c0.059-2.408-1.071-4.807-3.095-6.167c-1.155-0.784-2.507-1.258-3.847-1.438c-1.341-0.181-2.701-0.076-3.992,0.283
		c-2.586,0.726-4.698,2.465-5.592,5.235c-0.378,1.065-0.527,2.195-0.476,3.356c0.058,1.162,0.312,2.353,0.657,3.508
		c0.739,2.32,2.189,4.608,4.185,6.401c2.215,2.021,4.876,3.268,7.811,4.018c0.27,0.061,0.539,0.121,0.884,0.199
		c-0.612,0.723-1.171,1.355-1.695,2.008c-0.197,0.246-0.426,0.275-0.682,0.203c-1.367-0.387-2.759-0.712-4.085-1.211
		c-1.859-0.7-3.481-1.81-4.936-3.121c-1.587-1.427-2.87-2.933-3.893-4.555c-1.058-1.634-1.813-3.368-2.21-5.227
		c-0.33-1.759-0.466-3.493,0.155-5.148c0.266-0.76,0.644-1.469,1.065-2.15c0.4-0.686,0.889-1.334,1.464-1.951
		c0.435-0.467,0.883-0.932,1.289-1.429c0.441-0.54,0.386-1.113-0.092-1.517c-0.468-0.397-1.192-0.452-1.769-0.064
		c-1.167,0.786-2.298,1.573-3.104,2.614c-0.548,0.691-0.952,1.423-1.357,2.165c-0.405,0.742-0.723,1.514-0.965,2.316
		c-0.277,0.919-0.428,1.832-0.462,2.746c-0.088,0.899-0.057,1.8,0.087,2.707c0.28,1.812,1.059,3.671,2.065,5.532
		c1.73,3.113,4.246,5.886,7.353,8.137c1.698,1.227,3.559,2.17,5.649,2.627c0.676,0.148,1.364,0.248,2.147,0.383
		c-0.175,0.282-0.317,0.51-0.459,0.739c-0.803,1.218-1.58,2.441-2.308,3.685c-0.698,1.257-1.517,2.46-2.168,3.746
		c-1.538,3.074-3.096,6.08-4.297,9.277c-1.362,3.107-2.388,6.404-3.431,9.747c-0.336,1.196-0.673,2.392-1.01,3.592
		c-0.364,1.18-0.709,2.374-1.031,3.585c-0.331,1.203-0.597,2.456-0.909,3.67c-0.313,1.213-0.596,2.447-0.843,3.705
		c-0.69,3.838-1.258,7.557-0.991,11.536c0.021,0.335-0.061,0.707-0.178,1.037c-0.635,1.602-1.365,3.173-2.17,4.72
		c-0.403,0.773-0.826,1.54-1.267,2.299c-0.464,0.736-0.954,1.457-1.456,2.175c-1.01,1.432-2.078,2.845-3.22,4.21
		c-1.186,1.315-2.43,2.601-3.722,3.857c-1.269,1.282-2.669,2.411-4.102,3.498c-1.444,1.072-2.876,2.164-4.439,3.066
		c-1.667,0.977-3.356,1.898-5.069,2.738c-1.716,0.836-3.532,1.474-5.327,2.076c-0.826,0.268-1.65,0.51-2.472,0.726
		c-0.823,0.213-1.675,0.348-2.505,0.487c-1.669,0.264-3.324,0.43-4.958,0.504c-3.296,0.096-6.574-0.296-9.705-0.922
		c-2.95-0.699-5.64-1.82-7.961-3.581c-1.209-0.912-2.302-1.95-3.138-3.269c-0.139-0.219-0.251-0.455-0.376-0.684
		c0.257,0.073,0.405,0.209,0.55,0.348c3.627,3.451,9.38,3.134,12.533-0.914c1.627-1.959,2.122-4.418,1.724-6.651
		c-0.398-2.245-1.713-4.333-3.727-5.855c-1.086-0.825-2.225-1.4-3.45-1.883c-3.624-1.451-6.695-1.236-9.699,0.631
		c-0.716,0.468-1.358,0.998-1.929,1.592c-0.573,0.588-1.099,1.179-1.54,1.873c-0.888,1.371-1.492,3.015-1.81,4.94
		c-0.385,2.361-0.018,4.653,0.64,6.937c0.644,2.248,1.854,4.233,3.394,5.94c0.173,0.203,0.348,0.408,0.565,0.663
		c-0.226,0.084-0.342,0.138-0.464,0.17c-1.922,0.461-3.801,1.026-5.649,1.732c-1.639,0.657-3.284,1.231-4.872,1.972
		c-1.597,0.706-3.126,1.639-4.673,2.487c-1.674,0.971-3.254,2.07-4.712,3.341c-1.458,1.268-2.819,2.573-4.011,4.178
		c-1.358,1.804-2.456,3.759-2.882,5.978c-0.107,0.556-0.1,1.144-0.032,1.7c0.09,0.73,0.635,1.248,1.239,1.282
		c0.8,0.044,1.21-0.45,1.507-1.019c0.311-0.595,0.555-1.214,0.847-1.813c1.041-2.152,2.311-4.033,3.822-5.739
		c1.504-1.747,3.26-3.251,5.322-4.483c1.518-0.885,3.035-1.829,4.654-2.523c2.881-1.205,5.74-2.417,8.747-3.247
		c1.494-0.377,2.968-0.809,4.52-1.234c0.477,0.291,1.014,0.618,1.549,0.944c0.529,0.302,1.056,0.604,1.706,0.976
		c-1.155,0.298-2.139,0.502-3.089,0.807c-2.566,0.89-5.12,1.738-7.581,2.935c-1.859,0.938-3.693,1.806-5.439,2.887
		c-1.75,1.071-3.431,2.298-5.098,3.516c-1.882,1.426-3.384,3.077-4.547,4.928c-1.17,1.803-2.006,3.783-2.518,5.972
		c-0.378,1.612-0.318,3.242,0.374,4.743c1.275,2.756,3.869,4.411,7.432,4.668c1.455,0.126,2.872-0.157,4.212-0.751
		c1.354-0.578,2.394-1.584,2.993-2.701c0.602-1.109,0.767-2.318,0.39-3.389c-0.52-1.473-1.849-2.615-3.443-3.239
		c-1.606-0.664-3.492-0.869-5.191-0.321c-0.41,0.131-0.8,0.319-1.376,0.551c0.24-0.551,0.381-0.977,0.599-1.371
		c1.058-1.909,2.382-3.627,4.133-5.002c1.858-1.562,3.778-2.978,5.797-4.188c1.016-0.585,2.032-1.204,3.078-1.771
		c1.047-0.563,2.122-1.076,3.232-1.538c2.092-0.816,4.154-1.667,6.296-2.298c1.065-0.331,2.153-0.602,3.231-0.898
		c1.07-0.317,2.152-0.609,3.243-0.883c0.412-0.103,0.888-0.082,1.303-0.002c3.217,0.669,6.447,0.855,9.844,0.635
		c1.884-0.096,3.705-0.419,5.535-0.807c1.819-0.406,3.676-0.834,5.445-1.477c1.77-0.641,3.529-1.368,5.269-2.174
		c0.878-0.39,1.728-0.837,2.558-1.325c0.836-0.478,1.667-0.975,2.492-1.49c2.889-1.729,5.482-3.864,7.974-6.07
		c1.266-1.079,2.389-2.324,3.525-3.534c1.118-1.232,2.231-2.454,3.25-3.762c0.638-0.842,1.224-1.717,1.865-2.624
		c0.186,0.168,0.329,0.308,0.483,0.436c1.036,0.86,2.013,1.797,3.132,2.553c4.081,2.763,8.979,4.008,14.337,3.891
		c5.221-0.033,10.196-2.159,14.715-6.24c2.108-2.005,3.822-4.186,5.028-6.548c1.155-2.402,1.858-4.942,2.082-7.574
		c0.188-2.103-0.015-4.194-0.791-5.944c-0.218-0.486-0.534-0.944-0.923-1.259c-0.525-0.423-1.189,0.022-1.247,0.812
		c-0.035,0.474,0.064,0.934,0.125,1.394c0.403,2.9,0.028,5.643-0.931,8.337c-0.937,2.71-2.734,5.165-5.181,7.443
		c-1.621,1.544-3.433,2.701-5.286,3.55c-1.853,0.849-3.762,1.374-5.714,1.547c-2.393,0.161-4.685-0.007-6.89-0.419
		c-3.583-0.667-6.765-1.968-9.3-4.377c-0.499-0.474-0.937-1.013-1.373-1.489c0.659-1.501,1.264-2.878,1.917-4.364
		c0.213,0.357,0.369,0.619,0.525,0.881c1.299,2.219,2.966,4.078,5.336,5.188c5.558,2.637,11.501,1.54,17.233-3.114
		c1.715-1.432,3.076-3.086,4.029-4.892c0.893-1.854,1.377-3.862,1.422-5.953c0.071-2.794-0.865-5.045-2.796-6.621
		c-1.824-1.49-4.178-2.068-6.638-1.953c-2.447,0.131-4.922,1.005-6.934,2.631c-2.735,2.021-4.171,4.677-4.214,7.964
		c-0.063,3.316,1.358,5.745,4.262,7.07c0.076,0.034,0.128,0.11,0.276,0.242c-1.037,0.051-1.875-0.106-2.638-0.461
		c-2.147-0.998-3.448-2.754-4.121-5.058c-0.623-2.11-0.764-4.253-0.754-6.48c-0.003-1.692,0.134-3.353,0.369-4.989
		c0.238-1.633,0.582-3.235,0.894-4.885c0.64-3.118,1.461-6.096,2.208-9.125c0.385-1.505,0.854-2.956,1.254-4.448
		c0.394-1.496,0.815-2.974,1.26-4.436c0.2-0.621,0.398-1.239,0.596-1.854c0.181-0.627,0.373-1.247,0.574-1.861
		c0.403-1.228,0.847-2.432,1.335-3.616c0.96-2.375,1.921-4.754,3.171-7.033c1.1-2.271,2.409-4.365,3.929-6.34
		c1.412-2.017,3.057-3.909,4.853-5.755c0.258-0.285,0.541-0.459,0.924-0.517c1.798-0.271,3.54-0.836,5.266-1.542
		c1.291-0.527,2.53-1.154,3.717-1.879c1.182-0.726,2.235-1.573,3.27-2.508c2.043-1.876,3.921-4.133,5.308-6.822
		c0.783-1.457,1.47-2.959,2.068-4.495c0.535-1.547,0.962-3.131,1.317-4.736c0.773-3.204,0.91-6.537,0.891-9.876
		c0.007-1.094-0.088-2.182-0.227-3.262c-0.131-1.079-0.295-2.147-0.487-3.205C376.945,222.359,376.727,221.314,376.479,220.28z
		 M344.325,249.39c-0.996-0.584-1.672-1.372-1.6-2.49c0.026-0.407,0.214-0.816,0.41-1.188c0.167-0.315,0.533-0.431,0.924-0.405
		c0.551,0.036,0.758,0.362,0.543,0.833c-0.349,0.765-0.168,1.287,0.584,1.712c0.626,0.354,1.349,0.178,1.815-0.449
		c0.39-0.539,0.502-1.128,0.24-1.747c-0.444-1.086-1.265-1.767-2.461-1.969c-1.11-0.188-1.954,0.258-2.572,1.017
		c-1.099,1.259-1.514,2.655-0.956,4.282c0.387,1.134,1.154,2.014,2.338,2.56c0.305,0.14,0.607,0.295,0.888,0.476
		c0.33,0.213,0.481,0.537,0.397,0.895c-0.094,0.393-0.419,0.618-0.834,0.645c-0.328,0.021-0.683,0.01-0.993-0.087
		c-1.61-0.507-2.753-1.451-3.472-2.524c-0.737-1.08-1.112-2.308-1.063-3.404c0.02-0.505,0.11-1.003,0.148-1.327
		c0.242-0.82,0.574-1.549,0.968-2.204c0.382-0.657,0.88-1.227,1.546-1.708c1.561-1.127,3.358-1.447,5.269-0.628
		c1.809,0.775,2.938,2.128,3.083,4.089c0.118,1.594-0.671,2.849-2.052,3.661C346.451,250.023,345.377,250.006,344.325,249.39z
		 M264.56,337.991c-0.212,0.551-0.718,0.797-1.214,0.627c-0.51-0.175-0.817-0.672-0.722-1.287c0.375-2.299,1.235-4.279,3.063-5.538
		c0.339-0.232,0.705-0.421,0.985-0.586c0.56-0.194,1.117-0.35,1.676-0.464c0.545-0.142,1.093-0.238,1.646-0.278
		c1.107-0.081,2.24,0.06,3.435,0.493c2.486,0.912,3.973,2.725,4.449,4.791c0.471,2.042-0.115,4.288-1.663,5.912
		c-0.587,0.617-1.25,1.059-1.939,1.351c-0.691,0.288-1.432,0.374-2.137,0.373c-1.419-0.016-2.746-0.503-3.663-1.199
		c-1.35-1.024-1.894-2.471-1.721-4.153c0.158-1.527,0.956-2.541,2.265-3.057c1.013-0.377,1.979-0.185,2.899,0.468
		c0.541,0.384,0.776,0.949,0.67,1.62c-0.102,0.644-0.629,0.84-1.145,0.451c-0.259-0.198-0.504-0.47-0.791-0.573
		c-0.811-0.291-1.662,0.3-1.833,1.207c-0.184,0.984,0.309,2.024,1.275,2.49c0.966,0.465,2.041,0.613,2.993,0.29
		c0.934-0.362,1.75-1.179,2.207-2.56c0.156-0.47,0.215-1,0.2-1.502c-0.048-1.583-0.8-2.724-2.225-3.4
		c-1.549-0.745-3.031-0.713-4.567-0.407c-2.181,0.41-3.486,1.729-3.938,4.119C264.714,337.455,264.654,337.731,264.56,337.991z
		 M344.734,318.242c0.307-0.533,0.693-1.024,1.144-1.446c0.436-0.434,0.926-0.806,1.475-1.074c2.245-1.106,4.268-0.803,5.887,0.654
		c2.636,2.337,2.65,7.484-0.551,11.281c-1.273,1.382-3.029,2.461-5.143,1.994c-0.545-0.116-1.038-0.395-1.504-0.673
		c-0.456-0.272-0.536-0.769-0.306-1.228c0.22-0.422,0.645-0.709,1.163-0.709c0.41,0.002,0.808,0.077,1.217,0.095
		c1.519,0.067,2.878-0.75,3.763-2.238c0.632-1.076,0.945-2.251,0.875-3.369c-0.072-1.121-0.476-2.145-1.189-2.883
		c-0.968-0.998-2.566-1.049-3.733-0.162c-0.751,0.54-1.269,1.62-1.182,2.46c0.084,0.81,0.66,1.128,1.457,0.767
		c0.307-0.139,0.6-0.278,0.867-0.071c0.29,0.225,0.245,0.569,0.15,0.927c-0.224,0.848-0.91,1.466-1.853,1.667
		c-1.657,0.354-3.104-0.793-3.311-2.53C343.821,320.538,344.12,319.307,344.734,318.242z"/>
	<path fill="#9E7E5E" d="M231.374,354.811c-0.383,0.278-0.729,0.644-1.01,1.034c-0.421,0.582-0.77,1.222-1.161,1.836
		c-0.716,1.122-1.481,2.213-2.312,3.257c-0.833,1.005-1.733,1.947-2.712,2.831c-1.958,1.737-4.234,3.343-6.932,4.258l-0.767,0.293
		c-1.43,0.523-2.885,0.999-4.364,1.417c-1.477,0.37-2.977,0.639-4.497,0.86c-1.518,0.193-3.063,0.411-4.611,0.372
		c-1.549-0.013-3.113-0.109-4.686-0.299c-1.818-0.182-3.577-0.64-5.279-1.204c-1.698-0.587-3.349-1.229-4.885-2.188
		c-1.879-1.16-3.596-2.429-5.059-3.875c-1.462-1.453-2.64-3.21-3.495-5.131c-0.993-2.257-1.69-4.517-1.4-6.974
		c0.146-1.251,0.462-2.457,1.218-3.637c0.137,0.337,0.239,0.586,0.34,0.836c1.138,2.757,3.473,4.199,5.869,4.285
		c2.408,0.059,4.807-1.071,6.167-3.095c0.784-1.155,1.258-2.507,1.438-3.847c0.181-1.341,0.076-2.701-0.283-3.992
		c-0.726-2.586-2.465-4.698-5.235-5.592c-1.065-0.378-2.195-0.527-3.356-0.476c-1.162,0.058-2.353,0.312-3.508,0.657
		c-2.32,0.739-4.608,2.189-6.401,4.185c-2.021,2.215-3.268,4.876-4.018,7.811c-0.061,0.27-0.121,0.539-0.199,0.884
		c-0.723-0.612-1.355-1.171-2.008-1.695c-0.246-0.197-0.275-0.426-0.203-0.682c0.387-1.367,0.712-2.759,1.211-4.085
		c0.7-1.859,1.81-3.481,3.121-4.936c1.427-1.587,2.933-2.87,4.555-3.893c1.634-1.058,3.368-1.813,5.227-2.21
		c1.759-0.33,3.493-0.466,5.148,0.155c0.76,0.266,1.469,0.644,2.15,1.065c0.686,0.401,1.334,0.889,1.951,1.464
		c0.467,0.435,0.932,0.883,1.429,1.289c0.54,0.441,1.113,0.386,1.517-0.092c0.397-0.468,0.452-1.192,0.064-1.769
		c-0.786-1.167-1.573-2.298-2.614-3.104c-0.691-0.548-1.423-0.952-2.165-1.357c-0.742-0.405-1.514-0.723-2.316-0.965
		c-0.919-0.277-1.832-0.428-2.746-0.462c-0.899-0.088-1.8-0.057-2.707,0.087c-1.812,0.28-3.671,1.059-5.532,2.065
		c-3.113,1.73-5.885,4.246-8.137,7.353c-1.227,1.698-2.17,3.559-2.627,5.649c-0.148,0.676-0.248,1.364-0.383,2.147
		c-0.282-0.175-0.51-0.317-0.739-0.459c-1.218-0.803-2.441-1.58-3.685-2.308c-1.257-0.698-2.46-1.517-3.746-2.168
		c-3.074-1.538-6.08-3.096-9.277-4.297c-3.107-1.362-6.404-2.388-9.747-3.431c-1.196-0.336-2.392-0.673-3.592-1.01
		c-1.18-0.364-2.374-0.709-3.585-1.031c-1.203-0.331-2.456-0.597-3.67-0.909c-1.213-0.313-2.447-0.596-3.705-0.843
		c-3.838-0.69-7.557-1.258-11.536-0.991c-0.335,0.021-0.707-0.061-1.037-0.178c-1.602-0.635-3.173-1.365-4.72-2.171
		c-0.773-0.403-1.54-0.826-2.299-1.267c-0.736-0.464-1.457-0.954-2.175-1.456c-1.432-1.01-2.845-2.078-4.21-3.22
		c-1.315-1.186-2.601-2.43-3.857-3.722c-1.282-1.269-2.411-2.669-3.498-4.102c-1.072-1.444-2.164-2.876-3.066-4.439
		c-0.977-1.667-1.898-3.356-2.739-5.069c-0.835-1.716-1.474-3.532-2.076-5.327c-0.268-0.826-0.51-1.65-0.726-2.472
		c-0.213-0.823-0.348-1.675-0.487-2.505c-0.264-1.669-0.43-3.324-0.504-4.958c-0.096-3.296,0.296-6.574,0.922-9.705
		c0.699-2.95,1.82-5.64,3.581-7.961c0.912-1.209,1.95-2.302,3.269-3.138c0.219-0.139,0.455-0.251,0.684-0.376
		c-0.073,0.257-0.209,0.405-0.348,0.55c-3.451,3.627-3.134,9.38,0.914,12.533c1.959,1.627,4.418,2.122,6.651,1.724
		c2.245-0.399,4.333-1.713,5.855-3.727c0.826-1.085,1.4-2.225,1.883-3.45c1.451-3.624,1.236-6.695-0.631-9.699
		c-0.468-0.716-0.998-1.358-1.592-1.929c-0.588-0.573-1.179-1.099-1.873-1.54c-1.371-0.888-3.015-1.492-4.94-1.81
		c-2.361-0.385-4.653-0.018-6.937,0.64c-2.248,0.644-4.233,1.854-5.94,3.394c-0.203,0.173-0.408,0.348-0.663,0.565
		c-0.084-0.226-0.138-0.342-0.17-0.464c-0.461-1.922-1.026-3.801-1.732-5.649c-0.657-1.639-1.231-3.284-1.972-4.872
		c-0.706-1.597-1.639-3.126-2.487-4.673c-0.971-1.674-2.07-3.254-3.341-4.712c-1.268-1.458-2.572-2.819-4.178-4.012
		c-1.804-1.358-3.759-2.456-5.978-2.882c-0.556-0.107-1.144-0.1-1.7-0.032c-0.73,0.09-1.248,0.635-1.282,1.239
		c-0.044,0.8,0.45,1.21,1.019,1.507c0.595,0.311,1.214,0.555,1.813,0.847c2.152,1.041,4.033,2.311,5.739,3.822
		c1.747,1.504,3.251,3.26,4.483,5.322c0.885,1.518,1.829,3.035,2.523,4.654c1.205,2.881,2.417,5.74,3.247,8.747
		c0.377,1.494,0.809,2.968,1.234,4.52c-0.291,0.477-0.618,1.014-0.944,1.549c-0.302,0.529-0.604,1.056-0.975,1.706
		c-0.298-1.155-0.502-2.139-0.807-3.089c-0.89-2.566-1.738-5.12-2.936-7.581c-0.938-1.859-1.805-3.693-2.887-5.439
		c-1.071-1.75-2.298-3.431-3.516-5.098c-1.426-1.882-3.077-3.384-4.928-4.547c-1.803-1.17-3.783-2.006-5.972-2.518
		c-1.612-0.378-3.242-0.318-4.743,0.374c-2.756,1.275-4.411,3.869-4.668,7.432c-0.126,1.455,0.157,2.872,0.751,4.212
		c0.578,1.354,1.584,2.394,2.701,2.993c1.109,0.602,2.318,0.767,3.389,0.39c1.473-0.52,2.615-1.849,3.239-3.443
		c0.664-1.606,0.869-3.492,0.321-5.191c-0.131-0.41-0.319-0.8-0.551-1.376c0.551,0.24,0.977,0.381,1.371,0.599
		c1.909,1.058,3.627,2.382,5.002,4.133c1.562,1.859,2.978,3.778,4.188,5.797c0.585,1.015,1.204,2.032,1.771,3.078
		c0.563,1.047,1.076,2.122,1.538,3.232c0.816,2.092,1.667,4.154,2.298,6.296c0.331,1.065,0.602,2.153,0.898,3.231
		c0.317,1.07,0.609,2.152,0.883,3.243c0.103,0.412,0.082,0.888,0.002,1.303c-0.669,3.217-0.855,6.447-0.635,9.844
		c0.096,1.884,0.419,3.705,0.807,5.535c0.406,1.819,0.834,3.676,1.477,5.445c0.641,1.77,1.368,3.529,2.174,5.269
		c0.39,0.878,0.837,1.728,1.325,2.558c0.478,0.836,0.975,1.667,1.49,2.492c1.729,2.889,3.864,5.482,6.07,7.974
		c1.079,1.266,2.324,2.389,3.534,3.525c1.232,1.118,2.454,2.231,3.762,3.25c0.842,0.638,1.717,1.224,2.624,1.865
		c-0.168,0.186-0.308,0.329-0.436,0.483c-0.86,1.036-1.797,2.013-2.553,3.132c-2.763,4.081-4.008,8.979-3.891,14.337
		c0.033,5.221,2.159,10.196,6.24,14.715c2.005,2.108,4.186,3.822,6.548,5.028c2.402,1.155,4.942,1.858,7.574,2.082
		c2.103,0.188,4.194-0.015,5.944-0.791c0.486-0.218,0.944-0.534,1.259-0.923c0.423-0.525-0.022-1.189-0.812-1.247
		c-0.474-0.035-0.934,0.064-1.394,0.125c-2.9,0.403-5.643,0.028-8.337-0.931c-2.71-0.937-5.165-2.734-7.442-5.181
		c-1.544-1.621-2.701-3.433-3.55-5.286c-0.849-1.853-1.374-3.762-1.547-5.714c-0.161-2.393,0.007-4.685,0.419-6.89
		c0.667-3.583,1.968-6.765,4.377-9.3c0.474-0.499,1.013-0.937,1.489-1.373c1.501,0.659,2.878,1.264,4.364,1.917
		c-0.357,0.213-0.619,0.369-0.881,0.525c-2.219,1.299-4.078,2.967-5.188,5.336c-2.637,5.558-1.539,11.501,3.114,17.233
		c1.432,1.715,3.086,3.076,4.892,4.029c1.854,0.893,3.862,1.377,5.953,1.422c2.794,0.071,5.045-0.865,6.621-2.796
		c1.49-1.824,2.068-4.178,1.953-6.638c-0.131-2.447-1.005-4.922-2.631-6.934c-2.021-2.735-4.676-4.171-7.964-4.214
		c-3.316-0.063-5.745,1.358-7.07,4.262c-0.034,0.075-0.11,0.128-0.242,0.276c-0.051-1.037,0.106-1.875,0.46-2.638
		c0.998-2.147,2.754-3.448,5.058-4.121c2.11-0.623,4.252-0.764,6.48-0.754c1.692-0.003,3.353,0.133,4.989,0.369
		c1.633,0.238,3.235,0.582,4.885,0.894c3.118,0.64,6.096,1.461,9.125,2.208c1.505,0.385,2.956,0.854,4.448,1.254
		c1.496,0.394,2.974,0.815,4.436,1.26c0.621,0.2,1.239,0.398,1.854,0.596c0.627,0.182,1.247,0.373,1.861,0.574
		c1.228,0.403,2.432,0.847,3.616,1.335c2.375,0.96,4.754,1.921,7.033,3.171c2.271,1.1,4.365,2.409,6.34,3.929
		c2.017,1.412,3.909,3.057,5.755,4.853c0.285,0.258,0.459,0.541,0.517,0.924c0.271,1.798,0.836,3.54,1.542,5.266
		c0.527,1.291,1.154,2.53,1.879,3.717c0.726,1.182,1.573,2.235,2.508,3.27c1.876,2.043,4.133,3.921,6.822,5.308
		c1.457,0.783,2.959,1.47,4.494,2.068c1.547,0.535,3.131,0.962,4.736,1.317c3.204,0.773,6.537,0.91,9.876,0.891
		c1.094,0.007,2.182-0.088,3.262-0.227c1.079-0.131,2.147-0.295,3.205-0.487c1.057-0.193,2.103-0.411,3.137-0.658
		c1.035-0.293,2.058-0.611,3.069-0.948c5.06-1.602,9.556-4.213,13.198-7.593c2.529-2.461,4.408-5.228,5.42-8.431
		c0.289-0.913,0.516-1.844,0.409-2.807c-0.055-0.499-0.198-1.031-0.449-1.463C232.93,354.484,232.066,354.31,231.374,354.811z
		 M178.525,343.048c0.507-1.61,1.451-2.753,2.524-3.472c1.08-0.737,2.308-1.112,3.404-1.063c0.505,0.02,1.003,0.11,1.327,0.148
		c0.82,0.242,1.549,0.574,2.204,0.968c0.657,0.382,1.227,0.88,1.708,1.546c1.127,1.561,1.447,3.358,0.628,5.269
		c-0.775,1.809-2.128,2.938-4.09,3.083c-1.594,0.118-2.849-0.671-3.661-2.052c-0.592-1.023-0.575-2.097,0.041-3.148
		c0.584-0.996,1.372-1.672,2.49-1.6c0.407,0.026,0.816,0.214,1.188,0.41c0.315,0.167,0.431,0.533,0.405,0.924
		c-0.036,0.551-0.362,0.758-0.833,0.543c-0.765-0.349-1.287-0.168-1.712,0.584c-0.354,0.626-0.178,1.349,0.449,1.815
		c0.539,0.39,1.128,0.502,1.746,0.24c1.086-0.444,1.767-1.265,1.969-2.461c0.188-1.11-0.258-1.954-1.017-2.572
		c-1.259-1.099-2.655-1.514-4.282-0.956c-1.135,0.387-2.014,1.154-2.56,2.338c-0.14,0.305-0.295,0.607-0.476,0.888
		c-0.213,0.33-0.537,0.481-0.895,0.396c-0.393-0.094-0.618-0.419-0.645-0.834C178.417,343.713,178.428,343.357,178.525,343.048z
		 M93.967,266.755c1.527,0.158,2.541,0.956,3.057,2.265c0.377,1.013,0.185,1.979-0.468,2.899c-0.384,0.541-0.949,0.776-1.62,0.67
		c-0.644-0.102-0.84-0.629-0.451-1.145c0.198-0.259,0.47-0.504,0.573-0.791c0.291-0.811-0.3-1.662-1.207-1.833
		c-0.984-0.184-2.024,0.309-2.49,1.275c-0.465,0.966-0.613,2.041-0.29,2.993c0.362,0.934,1.179,1.749,2.56,2.207
		c0.47,0.156,1,0.215,1.502,0.2c1.583-0.048,2.724-0.8,3.4-2.226c0.745-1.549,0.713-3.031,0.407-4.567
		c-0.41-2.181-1.729-3.486-4.119-3.938c-0.274-0.052-0.551-0.112-0.811-0.205c-0.551-0.212-0.797-0.718-0.627-1.214
		c0.175-0.51,0.672-0.817,1.287-0.722c2.299,0.375,4.279,1.235,5.538,3.063c0.232,0.339,0.421,0.705,0.586,0.985
		c0.194,0.56,0.35,1.117,0.464,1.675c0.142,0.545,0.238,1.093,0.278,1.646c0.081,1.107-0.06,2.24-0.493,3.435
		c-0.912,2.486-2.725,3.973-4.791,4.449c-2.042,0.471-4.288-0.115-5.912-1.663c-0.617-0.587-1.059-1.25-1.351-1.939
		c-0.288-0.691-0.374-1.432-0.373-2.137c0.016-1.419,0.503-2.746,1.199-3.663C90.838,267.126,92.285,266.582,93.967,266.755z
		 M104.249,345.736c0.422,0.22,0.709,0.645,0.709,1.163c-0.002,0.41-0.077,0.808-0.095,1.217c-0.067,1.519,0.75,2.878,2.238,3.763
		c1.077,0.632,2.251,0.945,3.369,0.875c1.121-0.072,2.145-0.476,2.883-1.189c0.998-0.968,1.049-2.566,0.162-3.733
		c-0.54-0.751-1.62-1.269-2.46-1.182c-0.81,0.084-1.128,0.66-0.767,1.457c0.139,0.307,0.278,0.6,0.071,0.867
		c-0.225,0.29-0.569,0.245-0.927,0.15c-0.848-0.224-1.466-0.91-1.667-1.853c-0.354-1.657,0.793-3.104,2.53-3.311
		c1.164-0.138,2.396,0.162,3.461,0.775c0.533,0.307,1.024,0.693,1.446,1.144c0.433,0.436,0.806,0.926,1.074,1.475
		c1.106,2.245,0.803,4.268-0.654,5.887c-2.337,2.636-7.484,2.65-11.281-0.551c-1.382-1.273-2.461-3.029-1.994-5.143
		c0.116-0.545,0.395-1.039,0.673-1.504C103.293,345.586,103.79,345.505,104.249,345.736z"/>
	<path fill="#9E7E5E" d="M55.521,211.72c0.293,1.035,0.611,2.058,0.948,3.069c1.602,5.06,4.213,9.556,7.593,13.198
		c2.461,2.529,5.228,4.408,8.431,5.42c0.913,0.289,1.844,0.516,2.807,0.409c0.499-0.055,1.031-0.198,1.463-0.449
		c0.753-0.438,0.926-1.302,0.426-1.993c-0.278-0.384-0.644-0.729-1.034-1.01c-0.582-0.421-1.222-0.77-1.836-1.161
		c-1.122-0.716-2.213-1.481-3.257-2.312c-1.005-0.833-1.947-1.733-2.831-2.712c-1.737-1.958-3.343-4.234-4.258-6.932l-0.293-0.767
		c-0.523-1.43-0.999-2.885-1.417-4.364c-0.37-1.477-0.639-2.977-0.86-4.497c-0.193-1.518-0.411-3.063-0.372-4.611
		c0.013-1.549,0.109-3.113,0.299-4.686c0.182-1.818,0.64-3.577,1.204-5.279c0.587-1.698,1.229-3.349,2.188-4.885
		c1.16-1.879,2.429-3.596,3.875-5.059c1.453-1.462,3.21-2.64,5.131-3.495c2.257-0.993,4.518-1.69,6.974-1.4
		c1.252,0.146,2.457,0.461,3.637,1.218c-0.337,0.137-0.586,0.238-0.836,0.34c-2.757,1.138-4.199,3.473-4.285,5.869
		c-0.059,2.408,1.071,4.807,3.095,6.167c1.155,0.784,2.507,1.258,3.847,1.439c1.341,0.181,2.701,0.076,3.992-0.283
		c2.586-0.726,4.698-2.465,5.593-5.235c0.378-1.065,0.527-2.195,0.476-3.356c-0.058-1.162-0.312-2.353-0.657-3.508
		c-0.739-2.32-2.189-4.608-4.185-6.401c-2.215-2.021-4.876-3.268-7.811-4.018c-0.27-0.061-0.539-0.121-0.884-0.199
		c0.612-0.723,1.171-1.355,1.695-2.008c0.197-0.246,0.426-0.275,0.682-0.203c1.367,0.387,2.759,0.712,4.085,1.211
		c1.859,0.7,3.481,1.81,4.936,3.121c1.587,1.427,2.87,2.933,3.893,4.555c1.058,1.634,1.813,3.368,2.21,5.227
		c0.33,1.759,0.466,3.493-0.155,5.147c-0.266,0.76-0.644,1.469-1.065,2.15c-0.4,0.686-0.889,1.334-1.464,1.951
		c-0.435,0.467-0.883,0.932-1.289,1.429c-0.441,0.54-0.386,1.113,0.092,1.517c0.468,0.397,1.192,0.452,1.769,0.064
		c1.167-0.786,2.298-1.573,3.104-2.614c0.548-0.691,0.952-1.423,1.357-2.165c0.405-0.742,0.723-1.514,0.965-2.316
		c0.277-0.919,0.428-1.832,0.462-2.746c0.088-0.899,0.057-1.8-0.087-2.707c-0.28-1.812-1.059-3.671-2.065-5.532
		c-1.73-3.113-4.246-5.886-7.353-8.137c-1.698-1.227-3.559-2.17-5.649-2.627c-0.676-0.148-1.364-0.248-2.147-0.383
		c0.175-0.282,0.317-0.51,0.459-0.739c0.803-1.218,1.58-2.441,2.308-3.685c0.698-1.257,1.517-2.46,2.168-3.746
		c1.538-3.074,3.096-6.08,4.297-9.277c1.362-3.107,2.388-6.404,3.431-9.747c0.336-1.196,0.673-2.392,1.01-3.592
		c0.364-1.18,0.709-2.374,1.031-3.585c0.331-1.203,0.597-2.456,0.909-3.67c0.313-1.213,0.596-2.447,0.843-3.705
		c0.69-3.838,1.258-7.557,0.991-11.536c-0.021-0.335,0.061-0.707,0.178-1.037c0.635-1.602,1.365-3.173,2.17-4.72
		c0.403-0.773,0.826-1.54,1.267-2.299c0.464-0.736,0.954-1.457,1.456-2.175c1.01-1.432,2.078-2.845,3.22-4.21
		c1.186-1.315,2.43-2.601,3.722-3.857c1.269-1.282,2.669-2.411,4.102-3.498c1.444-1.072,2.876-2.164,4.439-3.066
		c1.667-0.977,3.356-1.898,5.069-2.739c1.716-0.835,3.532-1.474,5.327-2.076c0.826-0.268,1.65-0.51,2.472-0.726
		c0.823-0.213,1.675-0.348,2.505-0.487c1.669-0.264,3.324-0.43,4.958-0.504c3.296-0.096,6.574,0.296,9.705,0.922
		c2.95,0.699,5.64,1.82,7.961,3.581c1.209,0.912,2.302,1.95,3.138,3.269c0.139,0.219,0.251,0.455,0.376,0.684
		c-0.257-0.073-0.405-0.209-0.55-0.348c-3.627-3.451-9.38-3.134-12.533,0.914c-1.627,1.959-2.122,4.418-1.724,6.651
		c0.398,2.245,1.713,4.333,3.727,5.855c1.086,0.825,2.225,1.4,3.45,1.883c3.624,1.451,6.695,1.236,9.699-0.631
		c0.716-0.468,1.358-0.998,1.929-1.592c0.573-0.588,1.099-1.179,1.54-1.873c0.888-1.371,1.492-3.015,1.81-4.94
		c0.385-2.362,0.018-4.653-0.64-6.937c-0.644-2.248-1.854-4.233-3.394-5.94c-0.173-0.203-0.348-0.408-0.565-0.663
		c0.226-0.084,0.342-0.138,0.464-0.17c1.922-0.461,3.801-1.026,5.649-1.732c1.639-0.657,3.284-1.231,4.872-1.972
		c1.597-0.706,3.126-1.639,4.673-2.487c1.674-0.971,3.254-2.07,4.712-3.341c1.458-1.268,2.819-2.572,4.011-4.178
		c1.358-1.804,2.456-3.759,2.882-5.978c0.107-0.556,0.1-1.144,0.032-1.7c-0.09-0.731-0.635-1.248-1.239-1.282
		c-0.8-0.044-1.21,0.45-1.507,1.019c-0.311,0.595-0.555,1.214-0.847,1.813c-1.041,2.152-2.311,4.033-3.822,5.739
		c-1.504,1.747-3.26,3.251-5.322,4.483c-1.518,0.885-3.035,1.829-4.654,2.523c-2.881,1.205-5.74,2.417-8.747,3.247
		c-1.494,0.377-2.968,0.809-4.52,1.234c-0.477-0.291-1.014-0.618-1.549-0.944c-0.529-0.302-1.056-0.604-1.706-0.975
		c1.155-0.298,2.139-0.502,3.089-0.807c2.566-0.89,5.12-1.738,7.581-2.936c1.859-0.938,3.693-1.805,5.439-2.887
		c1.75-1.071,3.431-2.298,5.098-3.516c1.882-1.426,3.384-3.077,4.547-4.928c1.17-1.803,2.006-3.783,2.518-5.972
		c0.378-1.612,0.318-3.242-0.374-4.743c-1.275-2.756-3.869-4.411-7.432-4.668c-1.455-0.126-2.872,0.157-4.212,0.751
		c-1.354,0.578-2.394,1.584-2.993,2.701c-0.602,1.109-0.767,2.318-0.39,3.389c0.52,1.473,1.849,2.615,3.443,3.239
		c1.606,0.664,3.492,0.869,5.191,0.321c0.41-0.131,0.8-0.319,1.376-0.551c-0.24,0.551-0.381,0.977-0.599,1.371
		c-1.058,1.909-2.382,3.627-4.133,5.002c-1.859,1.562-3.778,2.978-5.797,4.188c-1.016,0.585-2.032,1.204-3.078,1.771
		c-1.047,0.563-2.122,1.076-3.232,1.538c-2.092,0.816-4.154,1.667-6.296,2.298c-1.065,0.331-2.153,0.602-3.231,0.898
		c-1.07,0.317-2.152,0.609-3.243,0.883c-0.412,0.103-0.888,0.082-1.303,0.002c-3.217-0.669-6.447-0.855-9.844-0.635
		c-1.884,0.096-3.705,0.419-5.535,0.807c-1.819,0.407-3.676,0.834-5.445,1.477c-1.77,0.64-3.529,1.368-5.269,2.174
		c-0.878,0.391-1.728,0.837-2.558,1.325c-0.836,0.478-1.667,0.975-2.492,1.49c-2.889,1.729-5.482,3.864-7.974,6.07
		c-1.266,1.079-2.389,2.324-3.525,3.534c-1.118,1.232-2.231,2.454-3.25,3.762c-0.638,0.842-1.224,1.717-1.865,2.624
		c-0.186-0.168-0.329-0.308-0.483-0.436c-1.036-0.86-2.013-1.797-3.132-2.553c-4.081-2.763-8.979-4.008-14.337-3.891
		c-5.221,0.033-10.196,2.159-14.715,6.24c-2.108,2.005-3.822,4.186-5.028,6.548c-1.155,2.402-1.858,4.942-2.082,7.574
		c-0.188,2.103,0.015,4.194,0.791,5.944c0.218,0.486,0.534,0.944,0.923,1.259c0.525,0.423,1.189-0.022,1.247-0.812
		c0.035-0.474-0.064-0.934-0.125-1.394c-0.403-2.9-0.028-5.643,0.931-8.337c0.937-2.71,2.734-5.165,5.181-7.442
		c1.621-1.544,3.433-2.701,5.286-3.55c1.853-0.849,3.762-1.374,5.714-1.547c2.393-0.16,4.685,0.007,6.89,0.419
		c3.583,0.667,6.765,1.968,9.3,4.377c0.499,0.474,0.937,1.013,1.373,1.489c-0.659,1.501-1.264,2.878-1.917,4.364
		c-0.213-0.357-0.369-0.619-0.525-0.881c-1.299-2.219-2.966-4.078-5.336-5.188c-5.558-2.637-11.501-1.54-17.233,3.114
		c-1.715,1.432-3.076,3.086-4.029,4.892c-0.893,1.853-1.377,3.862-1.422,5.953c-0.071,2.794,0.865,5.045,2.796,6.621
		c1.824,1.49,4.178,2.068,6.638,1.953c2.447-0.13,4.922-1.005,6.934-2.631c2.735-2.021,4.171-4.676,4.214-7.964
		c0.063-3.316-1.358-5.745-4.262-7.07c-0.076-0.034-0.128-0.11-0.276-0.242c1.037-0.051,1.875,0.106,2.638,0.461
		c2.147,0.998,3.448,2.754,4.121,5.058c0.623,2.11,0.764,4.252,0.754,6.48c0.003,1.692-0.133,3.353-0.369,4.989
		c-0.238,1.633-0.582,3.235-0.894,4.885c-0.64,3.118-1.461,6.096-2.208,9.125c-0.385,1.505-0.854,2.956-1.254,4.448
		c-0.394,1.496-0.815,2.974-1.26,4.436c-0.2,0.621-0.398,1.239-0.596,1.854c-0.181,0.627-0.373,1.247-0.574,1.861
		c-0.403,1.228-0.847,2.432-1.335,3.616c-0.96,2.375-1.921,4.754-3.171,7.033c-1.1,2.271-2.409,4.365-3.929,6.34
		c-1.412,2.017-3.057,3.909-4.853,5.755c-0.258,0.285-0.541,0.459-0.924,0.517c-1.798,0.271-3.54,0.836-5.266,1.542
		c-1.291,0.528-2.53,1.154-3.717,1.879c-1.182,0.726-2.235,1.573-3.27,2.508c-2.043,1.876-3.921,4.133-5.308,6.822
		c-0.783,1.457-1.47,2.959-2.068,4.494c-0.535,1.547-0.962,3.131-1.317,4.736c-0.773,3.204-0.91,6.537-0.891,9.876
		c-0.007,1.094,0.088,2.182,0.227,3.262c0.131,1.079,0.295,2.147,0.487,3.205C55.055,209.641,55.273,210.686,55.521,211.72z
		 M87.675,182.61c0.996,0.583,1.672,1.372,1.6,2.49c-0.026,0.407-0.214,0.816-0.41,1.188c-0.167,0.315-0.533,0.431-0.924,0.405
		c-0.551-0.036-0.758-0.362-0.543-0.833c0.349-0.765,0.168-1.287-0.584-1.712c-0.626-0.354-1.349-0.178-1.815,0.449
		c-0.39,0.539-0.502,1.128-0.24,1.746c0.444,1.086,1.265,1.767,2.461,1.969c1.11,0.188,1.954-0.258,2.572-1.017
		c1.099-1.259,1.514-2.655,0.956-4.282c-0.387-1.135-1.154-2.014-2.338-2.56c-0.305-0.14-0.607-0.295-0.888-0.476
		c-0.33-0.213-0.481-0.537-0.397-0.895c0.094-0.393,0.419-0.618,0.834-0.645c0.328-0.021,0.683-0.01,0.993,0.087
		c1.61,0.507,2.753,1.451,3.472,2.524c0.737,1.08,1.112,2.308,1.063,3.404c-0.02,0.505-0.11,1.003-0.148,1.327
		c-0.242,0.82-0.574,1.549-0.968,2.204c-0.382,0.657-0.88,1.227-1.546,1.708c-1.561,1.127-3.358,1.447-5.269,0.628
		c-1.809-0.775-2.938-2.128-3.083-4.09c-0.118-1.594,0.671-2.849,2.052-3.661C85.549,181.977,86.623,181.994,87.675,182.61z
		 M167.44,94.009c0.212-0.551,0.718-0.797,1.214-0.627c0.51,0.175,0.817,0.672,0.722,1.287c-0.375,2.299-1.235,4.279-3.063,5.538
		c-0.339,0.232-0.705,0.421-0.985,0.586c-0.56,0.194-1.117,0.35-1.675,0.464c-0.545,0.142-1.093,0.238-1.646,0.278
		c-1.107,0.081-2.24-0.06-3.435-0.493c-2.486-0.912-3.973-2.725-4.449-4.791c-0.471-2.042,0.115-4.288,1.663-5.912
		c0.587-0.617,1.25-1.059,1.939-1.351c0.691-0.288,1.432-0.374,2.137-0.373c1.419,0.016,2.746,0.503,3.663,1.199
		c1.35,1.024,1.894,2.471,1.721,4.153c-0.158,1.527-0.956,2.541-2.265,3.057c-1.013,0.377-1.979,0.185-2.899-0.468
		c-0.541-0.384-0.776-0.949-0.67-1.62c0.102-0.644,0.629-0.84,1.145-0.451c0.259,0.198,0.504,0.47,0.791,0.573
		c0.811,0.291,1.662-0.3,1.833-1.207c0.184-0.984-0.309-2.024-1.275-2.49c-0.966-0.465-2.041-0.613-2.993-0.29
		c-0.934,0.362-1.749,1.179-2.207,2.56c-0.156,0.47-0.215,1-0.2,1.502c0.048,1.583,0.8,2.724,2.226,3.4
		c1.549,0.745,3.031,0.713,4.567,0.407c2.181-0.41,3.486-1.729,3.938-4.119C167.286,94.545,167.346,94.269,167.44,94.009z
		 M87.266,113.758c-0.307,0.533-0.693,1.024-1.144,1.446c-0.436,0.433-0.926,0.806-1.475,1.074
		c-2.245,1.106-4.268,0.803-5.887-0.654c-2.636-2.337-2.65-7.484,0.551-11.281c1.273-1.382,3.029-2.461,5.143-1.994
		c0.545,0.116,1.038,0.395,1.504,0.673c0.456,0.272,0.536,0.769,0.306,1.228c-0.22,0.422-0.645,0.709-1.163,0.709
		c-0.41-0.002-0.808-0.077-1.217-0.095c-1.519-0.067-2.878,0.75-3.763,2.238c-0.632,1.076-0.945,2.251-0.875,3.369
		c0.072,1.121,0.476,2.145,1.189,2.883c0.968,0.998,2.566,1.049,3.733,0.162c0.751-0.54,1.269-1.62,1.182-2.46
		c-0.084-0.81-0.66-1.128-1.457-0.767c-0.307,0.139-0.6,0.278-0.867,0.071c-0.29-0.225-0.245-0.569-0.15-0.927
		c0.224-0.848,0.911-1.466,1.853-1.667c1.657-0.354,3.104,0.793,3.311,2.53C88.179,111.462,87.88,112.693,87.266,113.758z"/>
	<path fill="#9E7E5E" d="M385.079,178.561c-0.578-1.354-1.584-2.394-2.701-2.993c-1.109-0.602-2.318-0.767-3.389-0.39
		c-1.473,0.52-2.615,1.849-3.239,3.443c-0.664,1.606-0.869,3.492-0.321,5.191c0.131,0.41,0.319,0.8,0.551,1.376
		c-0.551-0.24-0.977-0.381-1.371-0.599c-1.909-1.058-3.627-2.382-5.002-4.133c-1.562-1.858-2.978-3.778-4.188-5.797
		c-0.585-1.016-1.204-2.032-1.771-3.078c-0.563-1.047-1.076-2.122-1.538-3.232c-0.816-2.092-1.667-4.154-2.298-6.296
		c-0.331-1.065-0.602-2.153-0.898-3.231c-0.317-1.07-0.609-2.152-0.883-3.243c-0.103-0.412-0.082-0.888-0.002-1.303
		c0.669-3.217,0.855-6.447,0.635-9.844c-0.096-1.884-0.419-3.705-0.807-5.535c-0.406-1.819-0.834-3.676-1.477-5.445
		c-0.641-1.77-1.368-3.529-2.174-5.269c-0.39-0.878-0.837-1.728-1.325-2.558c-0.478-0.836-0.975-1.667-1.49-2.492
		c-1.729-2.889-3.864-5.482-6.07-7.974c-1.079-1.266-2.324-2.389-3.534-3.525c-1.232-1.118-2.454-2.231-3.762-3.25
		c-0.842-0.639-1.717-1.224-2.624-1.865c0.168-0.186,0.308-0.329,0.436-0.483c0.86-1.036,1.797-2.013,2.553-3.132
		c2.763-4.081,4.008-8.979,3.891-14.337c-0.033-5.221-2.159-10.196-6.24-14.715c-2.005-2.108-4.186-3.822-6.548-5.028
		c-2.402-1.155-4.942-1.858-7.574-2.082c-2.103-0.188-4.194,0.015-5.944,0.791c-0.486,0.218-0.944,0.534-1.259,0.923
		c-0.423,0.525,0.022,1.189,0.812,1.247c0.473,0.035,0.934-0.064,1.394-0.125c2.9-0.403,5.643-0.028,8.337,0.931
		c2.71,0.937,5.165,2.734,7.442,5.181c1.544,1.621,2.701,3.433,3.55,5.286c0.849,1.853,1.374,3.762,1.547,5.714
		c0.161,2.393-0.007,4.685-0.419,6.89c-0.667,3.583-1.968,6.765-4.377,9.3c-0.474,0.499-1.013,0.937-1.489,1.373
		c-1.501-0.659-2.878-1.264-4.364-1.917c0.357-0.213,0.619-0.369,0.881-0.525c2.219-1.299,4.078-2.966,5.188-5.336
		c2.637-5.558,1.539-11.501-3.114-17.233c-1.432-1.715-3.086-3.076-4.892-4.029c-1.854-0.893-3.862-1.377-5.953-1.422
		c-2.794-0.071-5.045,0.865-6.621,2.796c-1.49,1.824-2.068,4.178-1.953,6.638c0.131,2.447,1.005,4.922,2.631,6.934
		c2.021,2.735,4.676,4.171,7.964,4.214c3.316,0.063,5.745-1.358,7.07-4.261c0.034-0.075,0.11-0.128,0.242-0.276
		c0.051,1.037-0.106,1.875-0.46,2.638c-0.998,2.147-2.754,3.448-5.058,4.121c-2.11,0.623-4.253,0.764-6.48,0.754
		c-1.692,0.003-3.353-0.133-4.989-0.369c-1.633-0.238-3.235-0.582-4.885-0.894c-3.118-0.64-6.096-1.461-9.125-2.208
		c-1.505-0.385-2.956-0.854-4.448-1.254c-1.496-0.394-2.974-0.815-4.436-1.26c-0.621-0.2-1.239-0.398-1.854-0.596
		c-0.626-0.181-1.247-0.373-1.861-0.574c-1.228-0.403-2.432-0.847-3.616-1.335c-2.375-0.96-4.754-1.921-7.033-3.171
		c-2.271-1.1-4.365-2.409-6.34-3.929c-2.017-1.412-3.909-3.057-5.755-4.853c-0.285-0.258-0.459-0.541-0.517-0.924
		c-0.271-1.798-0.836-3.54-1.542-5.266c-0.527-1.291-1.154-2.53-1.879-3.717c-0.726-1.182-1.573-2.235-2.508-3.27
		c-1.876-2.043-4.133-3.921-6.822-5.308c-1.457-0.783-2.959-1.47-4.494-2.068c-1.547-0.535-3.131-0.962-4.736-1.317
		c-3.204-0.773-6.537-0.91-9.876-0.891c-1.094-0.007-2.182,0.088-3.262,0.227c-1.079,0.131-2.147,0.295-3.205,0.487
		c-1.057,0.193-2.103,0.411-3.137,0.658c-1.035,0.293-2.058,0.611-3.069,0.948c-5.06,1.602-9.556,4.213-13.198,7.593
		c-2.529,2.461-4.408,5.228-5.42,8.431c-0.289,0.913-0.516,1.844-0.409,2.807c0.055,0.498,0.198,1.031,0.449,1.463
		c0.438,0.753,1.302,0.926,1.993,0.426c0.383-0.277,0.729-0.644,1.01-1.034c0.421-0.582,0.77-1.222,1.161-1.836
		c0.716-1.122,1.481-2.213,2.312-3.257c0.833-1.005,1.733-1.947,2.712-2.831c1.958-1.737,4.234-3.343,6.932-4.258l0.767-0.293
		c1.43-0.523,2.885-0.999,4.364-1.417c1.477-0.37,2.977-0.639,4.497-0.86c1.518-0.193,3.063-0.411,4.611-0.372
		c1.549,0.013,3.113,0.109,4.686,0.299c1.818,0.182,3.577,0.64,5.279,1.204c1.698,0.587,3.349,1.229,4.885,2.188
		c1.879,1.16,3.596,2.429,5.059,3.875c1.462,1.453,2.64,3.21,3.495,5.131c0.993,2.257,1.69,4.518,1.4,6.974
		c-0.146,1.252-0.462,2.457-1.218,3.637c-0.137-0.337-0.238-0.586-0.34-0.836c-1.138-2.757-3.473-4.199-5.869-4.285
		c-2.408-0.059-4.807,1.071-6.167,3.095c-0.784,1.155-1.258,2.507-1.438,3.847c-0.181,1.341-0.076,2.701,0.283,3.992
		c0.726,2.586,2.465,4.698,5.235,5.592c1.065,0.378,2.195,0.527,3.356,0.476c1.162-0.058,2.353-0.312,3.508-0.657
		c2.32-0.739,4.608-2.189,6.401-4.185c2.021-2.215,3.268-4.876,4.018-7.811c0.061-0.27,0.121-0.539,0.199-0.884
		c0.723,0.612,1.355,1.171,2.008,1.695c0.246,0.197,0.275,0.426,0.203,0.682c-0.387,1.367-0.712,2.759-1.211,4.085
		c-0.7,1.859-1.81,3.481-3.121,4.936c-1.427,1.587-2.933,2.87-4.555,3.893c-1.634,1.058-3.368,1.813-5.227,2.21
		c-1.759,0.33-3.493,0.466-5.148-0.155c-0.76-0.266-1.469-0.644-2.15-1.065c-0.686-0.4-1.334-0.889-1.951-1.464
		c-0.467-0.435-0.932-0.883-1.429-1.289c-0.54-0.441-1.113-0.386-1.517,0.092c-0.397,0.468-0.452,1.192-0.064,1.769
		c0.786,1.167,1.573,2.298,2.614,3.104c0.691,0.548,1.423,0.952,2.165,1.357c0.742,0.405,1.514,0.723,2.316,0.965
		c0.919,0.277,1.832,0.428,2.746,0.462c0.899,0.088,1.8,0.057,2.707-0.087c1.812-0.279,3.671-1.059,5.532-2.065
		c3.113-1.73,5.885-4.246,8.137-7.353c1.227-1.698,2.17-3.559,2.627-5.649c0.148-0.676,0.248-1.364,0.383-2.147
		c0.282,0.175,0.51,0.317,0.739,0.459c1.218,0.803,2.441,1.58,3.685,2.308c1.257,0.698,2.46,1.517,3.746,2.168
		c3.074,1.538,6.08,3.096,9.277,4.297c3.107,1.362,6.404,2.388,9.747,3.43c1.196,0.336,2.392,0.673,3.592,1.01
		c1.18,0.364,2.374,0.709,3.585,1.031c1.203,0.331,2.456,0.597,3.67,0.909c1.213,0.313,2.447,0.596,3.705,0.843
		c3.838,0.69,7.557,1.258,11.536,0.991c0.335-0.021,0.707,0.061,1.037,0.178c1.602,0.635,3.173,1.365,4.72,2.17
		c0.773,0.403,1.54,0.826,2.299,1.267c0.736,0.464,1.457,0.954,2.175,1.456c1.432,1.009,2.845,2.078,4.21,3.22
		c1.315,1.186,2.601,2.43,3.857,3.722c1.282,1.269,2.411,2.669,3.498,4.102c1.072,1.444,2.164,2.876,3.066,4.439
		c0.977,1.667,1.898,3.356,2.739,5.069c0.835,1.716,1.474,3.532,2.076,5.327c0.268,0.826,0.51,1.65,0.726,2.472
		c0.213,0.823,0.348,1.675,0.487,2.505c0.264,1.669,0.43,3.324,0.504,4.958c0.096,3.296-0.296,6.574-0.922,9.705
		c-0.699,2.95-1.82,5.64-3.581,7.961c-0.912,1.209-1.95,2.302-3.269,3.138c-0.219,0.139-0.455,0.251-0.684,0.376
		c0.073-0.257,0.209-0.405,0.348-0.55c3.451-3.627,3.134-9.38-0.914-12.533c-1.959-1.627-4.418-2.122-6.651-1.724
		c-2.245,0.399-4.333,1.713-5.855,3.727c-0.826,1.086-1.4,2.225-1.883,3.45c-1.451,3.624-1.236,6.695,0.631,9.699
		c0.468,0.716,0.998,1.358,1.592,1.929c0.588,0.573,1.179,1.099,1.873,1.54c1.371,0.888,3.015,1.492,4.94,1.811
		c2.361,0.385,4.653,0.018,6.937-0.64c2.248-0.644,4.233-1.854,5.94-3.394c0.203-0.173,0.408-0.348,0.663-0.565
		c0.084,0.226,0.138,0.342,0.17,0.464c0.461,1.922,1.026,3.801,1.732,5.649c0.657,1.639,1.231,3.284,1.972,4.872
		c0.706,1.597,1.639,3.126,2.487,4.673c0.971,1.674,2.07,3.254,3.341,4.712c1.268,1.458,2.573,2.819,4.178,4.011
		c1.804,1.358,3.759,2.456,5.978,2.882c0.556,0.107,1.144,0.1,1.7,0.032c0.73-0.09,1.248-0.635,1.282-1.239
		c0.044-0.8-0.45-1.21-1.019-1.507c-0.595-0.311-1.214-0.555-1.813-0.847c-2.152-1.041-4.033-2.311-5.739-3.822
		c-1.747-1.504-3.251-3.26-4.483-5.322c-0.885-1.518-1.829-3.035-2.523-4.654c-1.205-2.881-2.417-5.74-3.247-8.747
		c-0.377-1.494-0.809-2.968-1.234-4.52c0.291-0.477,0.618-1.014,0.944-1.549c0.302-0.529,0.604-1.056,0.975-1.706
		c0.298,1.155,0.502,2.139,0.807,3.089c0.89,2.566,1.738,5.12,2.936,7.581c0.938,1.859,1.806,3.693,2.888,5.439
		c1.071,1.75,2.298,3.431,3.516,5.098c1.426,1.882,3.077,3.384,4.928,4.547c1.803,1.17,3.783,2.006,5.972,2.518
		c1.612,0.378,3.242,0.318,4.743-0.374c2.756-1.275,4.411-3.869,4.668-7.432C385.957,181.318,385.674,179.901,385.079,178.561z
		 M327.751,86.264c-0.422-0.22-0.709-0.645-0.709-1.163c0.002-0.41,0.077-0.808,0.095-1.217c0.067-1.519-0.75-2.878-2.238-3.763
		c-1.077-0.632-2.251-0.945-3.369-0.875c-1.121,0.072-2.145,0.476-2.883,1.189c-0.998,0.968-1.049,2.566-0.162,3.733
		c0.54,0.751,1.62,1.269,2.46,1.182c0.81-0.084,1.128-0.66,0.767-1.457c-0.139-0.307-0.278-0.6-0.071-0.867
		c0.225-0.29,0.569-0.245,0.927-0.15c0.848,0.224,1.466,0.91,1.667,1.853c0.354,1.657-0.793,3.104-2.53,3.311
		c-1.164,0.138-2.396-0.162-3.461-0.775c-0.533-0.307-1.024-0.693-1.446-1.144c-0.433-0.436-0.806-0.926-1.074-1.475
		c-1.106-2.245-0.803-4.268,0.654-5.887c2.337-2.636,7.484-2.65,11.281,0.551c1.382,1.273,2.461,3.029,1.994,5.143
		c-0.116,0.545-0.395,1.038-0.673,1.504C328.707,86.414,328.21,86.495,327.751,86.264z M253.475,88.952
		c-0.507,1.61-1.451,2.753-2.524,3.472c-1.08,0.737-2.308,1.112-3.404,1.063c-0.505-0.02-1.003-0.11-1.327-0.148
		c-0.82-0.242-1.549-0.574-2.204-0.968c-0.657-0.382-1.227-0.88-1.708-1.546c-1.127-1.561-1.447-3.359-0.628-5.269
		c0.775-1.809,2.128-2.938,4.09-3.083c1.594-0.118,2.849,0.671,3.661,2.052c0.592,1.023,0.574,2.097-0.041,3.148
		c-0.584,0.996-1.372,1.672-2.49,1.6c-0.407-0.026-0.816-0.214-1.188-0.41c-0.315-0.167-0.431-0.533-0.405-0.924
		c0.036-0.551,0.362-0.758,0.833-0.543c0.765,0.349,1.287,0.168,1.712-0.584c0.354-0.626,0.178-1.349-0.449-1.815
		c-0.539-0.39-1.128-0.502-1.746-0.24c-1.086,0.444-1.767,1.265-1.969,2.461c-0.188,1.11,0.258,1.954,1.017,2.572
		c1.259,1.099,2.655,1.514,4.282,0.956c1.135-0.387,2.014-1.154,2.56-2.338c0.14-0.305,0.295-0.607,0.476-0.888
		c0.213-0.33,0.537-0.481,0.895-0.396c0.393,0.094,0.618,0.419,0.645,0.834C253.583,88.287,253.572,88.643,253.475,88.952z
		 M338.033,165.245c-1.527-0.158-2.541-0.956-3.057-2.265c-0.377-1.013-0.185-1.979,0.468-2.899c0.385-0.541,0.949-0.776,1.62-0.67
		c0.644,0.102,0.84,0.629,0.451,1.145c-0.198,0.259-0.47,0.504-0.573,0.791c-0.291,0.811,0.3,1.662,1.207,1.833
		c0.984,0.185,2.024-0.309,2.49-1.275c0.465-0.966,0.613-2.041,0.29-2.993c-0.362-0.934-1.179-1.75-2.56-2.207
		c-0.47-0.156-1-0.215-1.502-0.2c-1.583,0.048-2.724,0.8-3.4,2.226c-0.745,1.549-0.713,3.031-0.407,4.567
		c0.41,2.181,1.729,3.486,4.119,3.938c0.274,0.052,0.551,0.112,0.811,0.205c0.551,0.212,0.797,0.718,0.627,1.214
		c-0.175,0.51-0.672,0.817-1.287,0.722c-2.299-0.375-4.279-1.235-5.538-3.063c-0.232-0.339-0.421-0.705-0.586-0.985
		c-0.194-0.559-0.35-1.117-0.464-1.675c-0.142-0.545-0.238-1.093-0.278-1.646c-0.081-1.107,0.06-2.24,0.493-3.435
		c0.912-2.486,2.725-3.973,4.791-4.449c2.042-0.471,4.288,0.115,5.912,1.663c0.617,0.587,1.059,1.25,1.351,1.939
		c0.288,0.691,0.374,1.432,0.373,2.137c-0.016,1.419-0.503,2.746-1.199,3.663C341.161,164.874,339.715,165.418,338.033,165.245z"/>
	<g>
		<path fill="#7F3244" d="M322.814,318.763c-0.687-0.203-1.379,0.11-1.79,0.861c-0.577,1.055-1.177,2.11-1.697,3.209
			c-1.171,2.264-2.551,4.426-4.092,6.501c-1.629,1.973-3.408,3.876-5.39,5.595c-2.015,1.615-4.063,3.187-6.261,4.514
			c-2.236,1.272-4.48,2.504-6.883,3.418c-2.222,0.821-4.424,1.554-6.682,2.016c-2.28,0.422-4.559,0.67-6.825,0.706
			c-1.06-0.015-2.119-0.029-3.171-0.044c-0.414,0-0.827,0.083-1.044,0.106c-0.931,0.411-1.195,1.084-0.743,1.739
			c0.252,0.364,0.635,0.723,1.046,0.874c0.902,0.332,1.851,0.609,2.821,0.753c0.979,0.141,1.983,0.24,2.981,0.245
			c0.988-0.016,1.985-0.094,2.987-0.238c9.268-1.275,18.015-5.447,25.159-11.967c1.909-1.839,3.725-3.709,5.243-5.812
			c1.495-2.128,2.895-4.265,3.98-6.61c0.622-1.345,0.955-2.732,1.277-4.111C323.931,319.669,323.522,318.973,322.814,318.763z"/>
		<path fill="#7F3244" d="M361.988,212.165c-0.555-0.813-1.148-1.581-1.784-2.301c-1.272-1.439-2.714-2.681-4.358-3.692
			c-0.279-0.172-0.577-0.334-0.891-0.424c-0.624-0.178-1.184,0.019-1.618,0.493c-0.457,0.5-0.592,1.08-0.284,1.675
			c0.169,0.326,0.418,0.626,0.68,0.895c0.845,0.854,1.698,1.716,2.545,2.572c1.206,1.218,2.124,2.587,2.881,4.104
			c0.607,1.225,1.143,2.481,1.602,3.765c0.459,1.284,0.722,2.593,0.962,3.928c0.224,1.334,0.362,2.693,0.404,4.07
			c-0.027,1.371-0.152,2.761-0.379,4.162c-0.187,1.12-0.394,2.223-0.691,3.295c-0.328,1.068-0.704,2.112-1.131,3.126
			c-0.427,1.014-0.906,1.998-1.442,2.947c-0.533,0.95-1.217,1.848-1.909,2.715c-0.493,0.605-0.943,1.243-1.375,1.883
			c-0.213,0.315-0.343,0.685-0.428,0.861c-0.22,1.158,0.345,1.854,1.325,1.803c0.301-0.016,0.614-0.1,0.885-0.232
			c0.414-0.202,0.814-0.448,1.189-0.724c1.077-0.792,2.025-1.725,2.87-2.765c0.836-1.042,1.62-2.182,2.193-3.421
			c0.641-1.314,1.181-2.679,1.642-4.079c0.223-0.701,0.457-1.406,0.618-2.126c0.157-0.72,0.297-1.446,0.422-2.177
			c0.266-1.55,0.432-3.093,0.497-4.621c0.02-1.532-0.112-3.052-0.313-4.545c-0.353-2.987-1.349-5.883-2.675-8.619
			C362.982,213.837,362.541,212.978,361.988,212.165z"/>
		<path fill="#7F3244" d="M356.856,266.139c-0.276,0.149-0.543,0.357-0.748,0.597c-0.629,0.736-1.29,1.447-1.816,2.245
			c-2.388,3.381-4.294,6.956-6.606,11.514c-0.511,1.441-1.602,3.722-2.621,6.052c-2.128,4.748-3.757,9.6-5.015,14.735
			c-0.285,1.308-0.61,2.572-0.839,3.867c-0.229,1.294-0.377,2.609-0.405,3.95c-0.012,0.572,0.012,1.154,0.105,1.713
			c0.1,0.592,0.416,1.04,1.033,1.151c0.622,0.109,1.081-0.266,1.481-0.745c0.126-0.151,0.236-0.332,0.304-0.514
			c0.309-0.823,0.636-1.64,0.882-2.471c0.354-1.247,0.671-2.465,0.961-3.729c0.561-2.342,1.205-4.619,1.929-6.854
			c0.644-2.286,1.386-4.52,2.252-6.709c0.507-1.401,1.026-2.794,1.598-4.159c0.553-1.374,1.204-2.698,1.725-4.089
			c0.821-2.094,1.827-4.081,2.842-6.061c0.979-1.996,2.088-3.932,3.297-5.84c0.435-0.757,0.822-1.553,1.177-2.358
			c0.162-0.368,0.263-0.798,0.267-1.196C358.669,266.196,357.748,265.658,356.856,266.139z"/>
		<path fill="#7F3244" d="M351.185,238.008c1.873,1.208,4.417,0.686,5.495-1.169l0.652-1.15c0.293-0.539,0.459-1.111,0.498-1.68
			c0.014-0.572-0.091-1.14-0.3-1.664c-0.418-1.05-1.254-1.923-2.393-2.35c-1.158-0.435-2.574-0.333-3.751,0.333
			c-0.588,0.333-1.117,0.808-1.524,1.432c-0.401,0.626-0.685,1.401-0.856,2.334C348.832,235.533,349.565,236.966,351.185,238.008z"
			/>
		<path fill="#7F3244" d="M353.261,299.534c-0.21-0.084-0.532-0.263-0.882-0.344c-1.972-0.457-3.658,0.073-5.115,1.758
			c-1.404,1.675-1.649,3.555-0.985,5.504c0.46,1.344,1.403,2.183,2.777,2.361c1.686,0.219,3.199-0.219,4.483-1.911
			c0.808-1.076,1.398-2.153,1.558-3.419C355.293,301.728,354.668,300.462,353.261,299.534z"/>
		<path fill="#7F3244" d="M275.074,360.198c-1.145,0.561-2.181,1.535-2.714,2.945c-0.71,1.9,0.018,3.654,1.952,4.479
			c0.255,0.109,0.516,0.209,0.779,0.307c2.628,0.996,6.688-1.067,6.692-4.49C281.766,360.697,278.203,358.885,275.074,360.198z"/>
		<path fill="#7F3244" d="M289.366,341.358c0.465,0.012,0.938-0.024,1.406-0.082c2.251-0.294,4.899-3.125,2.995-6.11
			c-0.993-1.491-3.046-2.245-4.742-1.766c-1.831,0.513-3.076,2.527-3.013,4.553C286.076,339.828,287.432,341.288,289.366,341.358z"
			/>
		<path fill="#7F3244" d="M112.376,321.025c-1.055-0.577-2.11-1.177-3.209-1.697c-2.264-1.171-4.426-2.551-6.501-4.092
			c-1.973-1.629-3.876-3.408-5.595-5.39c-1.615-2.015-3.187-4.063-4.514-6.261c-1.272-2.236-2.504-4.48-3.418-6.882
			c-0.821-2.222-1.554-4.424-2.016-6.682c-0.422-2.28-0.67-4.559-0.706-6.825c0.015-1.06,0.029-2.119,0.044-3.171
			c0-0.414-0.083-0.827-0.106-1.044c-0.411-0.931-1.084-1.195-1.739-0.743c-0.364,0.252-0.723,0.635-0.874,1.046
			c-0.332,0.902-0.609,1.851-0.753,2.821c-0.141,0.979-0.24,1.983-0.245,2.981c0.015,0.988,0.094,1.985,0.238,2.987
			c1.275,9.269,5.447,18.015,11.967,25.159c1.839,1.909,3.709,3.725,5.812,5.243c2.128,1.495,4.265,2.895,6.61,3.98
			c1.345,0.622,2.732,0.955,4.111,1.277c0.849,0.199,1.546-0.211,1.755-0.918C113.439,322.128,113.126,321.435,112.376,321.025z"/>
		<path fill="#7F3244" d="M224.083,353.053c-0.326,0.169-0.626,0.418-0.895,0.68c-0.854,0.845-1.716,1.698-2.572,2.545
			c-1.218,1.206-2.587,2.124-4.104,2.881c-1.225,0.607-2.481,1.144-3.765,1.602c-1.284,0.46-2.593,0.722-3.928,0.962
			c-1.334,0.224-2.693,0.362-4.07,0.404c-1.371-0.027-2.761-0.152-4.162-0.379c-1.12-0.188-2.223-0.394-3.295-0.691
			c-1.068-0.328-2.112-0.704-3.126-1.131c-1.014-0.427-1.998-0.906-2.947-1.442c-0.95-0.533-1.848-1.217-2.715-1.909
			c-0.605-0.493-1.243-0.943-1.883-1.375c-0.315-0.213-0.685-0.343-0.861-0.428c-1.158-0.22-1.854,0.345-1.803,1.325
			c0.017,0.301,0.1,0.614,0.232,0.885c0.202,0.414,0.448,0.814,0.724,1.189c0.792,1.077,1.725,2.025,2.765,2.87
			c1.042,0.836,2.182,1.62,3.421,2.193c1.314,0.641,2.679,1.181,4.079,1.642c0.701,0.223,1.406,0.457,2.126,0.618
			c0.72,0.157,1.446,0.297,2.177,0.422c1.55,0.266,3.093,0.432,4.621,0.497c1.532,0.02,3.052-0.112,4.545-0.313
			c2.987-0.353,5.883-1.349,8.619-2.675c0.897-0.444,1.755-0.885,2.568-1.438c0.813-0.555,1.581-1.148,2.301-1.784
			c1.439-1.272,2.681-2.714,3.692-4.358c0.172-0.279,0.334-0.577,0.424-0.891c0.178-0.624-0.018-1.184-0.493-1.618
			C225.258,352.881,224.678,352.745,224.083,353.053z"/>
		<path fill="#7F3244" d="M165.264,356.108c-0.736-0.629-1.447-1.29-2.245-1.816c-3.381-2.388-6.956-4.294-11.514-6.606
			c-1.441-0.511-3.722-1.602-6.052-2.621c-4.748-2.128-9.6-3.757-14.735-5.015c-1.308-0.285-2.572-0.61-3.867-0.839
			c-1.294-0.229-2.609-0.377-3.95-0.405c-0.572-0.012-1.154,0.012-1.713,0.105c-0.592,0.1-1.04,0.416-1.151,1.033
			c-0.109,0.622,0.266,1.081,0.744,1.481c0.151,0.126,0.332,0.236,0.514,0.304c0.823,0.309,1.64,0.636,2.471,0.882
			c1.247,0.354,2.465,0.671,3.729,0.961c2.342,0.561,4.619,1.205,6.854,1.929c2.286,0.644,4.52,1.386,6.709,2.252
			c1.401,0.507,2.794,1.026,4.159,1.598c1.374,0.553,2.698,1.204,4.089,1.725c2.094,0.821,4.081,1.827,6.061,2.842
			c1.996,0.979,3.932,2.088,5.84,3.297c0.757,0.435,1.553,0.822,2.358,1.177c0.368,0.162,0.798,0.263,1.196,0.267
			c1.042,0.011,1.581-0.91,1.099-1.802C165.712,356.581,165.504,356.313,165.264,356.108z"/>
		<path fill="#7F3244" d="M193.992,351.185c-1.208,1.873-0.686,4.417,1.169,5.495l1.15,0.652c0.539,0.293,1.111,0.459,1.68,0.498
			c0.572,0.014,1.14-0.091,1.664-0.3c1.05-0.418,1.923-1.254,2.35-2.393c0.435-1.158,0.333-2.574-0.333-3.751
			c-0.333-0.588-0.808-1.117-1.432-1.524c-0.626-0.401-1.401-0.685-2.334-0.856C196.467,348.831,195.034,349.565,193.992,351.185z"
			/>
		<path fill="#7F3244" d="M125.549,346.279c-1.344,0.46-2.183,1.403-2.361,2.777c-0.219,1.686,0.219,3.199,1.911,4.483
			c1.076,0.808,2.153,1.398,3.419,1.558c1.754,0.195,3.02-0.43,3.948-1.836c0.084-0.21,0.263-0.532,0.344-0.882
			c0.457-1.972-0.073-3.658-1.758-5.115C129.377,345.861,127.497,345.615,125.549,346.279z"/>
		<path fill="#7F3244" d="M68.857,272.36c-1.9-0.71-3.654,0.018-4.479,1.952c-0.109,0.255-0.209,0.516-0.307,0.779
			c-0.996,2.628,1.067,6.688,4.49,6.692c2.742-0.017,4.554-3.58,3.241-6.709C71.241,273.929,70.267,272.893,68.857,272.36z"/>
		<path fill="#7F3244" d="M90.642,289.366c-0.012,0.465,0.024,0.938,0.082,1.406c0.294,2.251,3.125,4.899,6.11,2.995
			c1.491-0.993,2.245-3.046,1.766-4.742c-0.513-1.831-2.527-3.076-4.553-3.013C92.172,286.076,90.712,287.432,90.642,289.366z"/>
		<path fill="#7F3244" d="M153.019,86.353c0.931-0.41,1.195-1.084,0.743-1.739c-0.252-0.364-0.635-0.723-1.046-0.874
			c-0.902-0.331-1.851-0.609-2.821-0.753c-0.979-0.141-1.983-0.24-2.981-0.245c-0.988,0.015-1.985,0.094-2.987,0.238
			c-9.269,1.275-18.015,5.447-25.159,11.967c-1.909,1.839-3.725,3.709-5.243,5.812c-1.495,2.128-2.895,4.265-3.98,6.61
			c-0.622,1.345-0.955,2.732-1.277,4.111c-0.199,0.849,0.211,1.546,0.918,1.755c0.687,0.203,1.379-0.11,1.79-0.861
			c0.577-1.055,1.177-2.11,1.697-3.209c1.171-2.264,2.551-4.426,4.092-6.501c1.63-1.973,3.408-3.876,5.39-5.595
			c2.015-1.615,4.063-3.187,6.261-4.514c2.236-1.272,4.48-2.504,6.882-3.418c2.222-0.821,4.424-1.554,6.682-2.016
			c2.28-0.422,4.559-0.67,6.825-0.706c1.06,0.015,2.119,0.029,3.171,0.044C152.389,86.46,152.803,86.377,153.019,86.353z"/>
		<path fill="#7F3244" d="M77.044,226.251c0.624,0.178,1.184-0.018,1.618-0.493c0.457-0.5,0.592-1.08,0.284-1.675
			c-0.169-0.326-0.418-0.626-0.68-0.895c-0.845-0.854-1.698-1.716-2.545-2.572c-1.206-1.218-2.123-2.587-2.881-4.104
			c-0.607-1.225-1.144-2.481-1.602-3.765c-0.459-1.284-0.722-2.593-0.962-3.928c-0.224-1.334-0.362-2.693-0.404-4.07
			c0.027-1.371,0.152-2.761,0.379-4.162c0.187-1.12,0.394-2.223,0.691-3.295c0.328-1.068,0.704-2.112,1.131-3.126
			c0.427-1.014,0.906-1.998,1.442-2.947c0.533-0.95,1.217-1.848,1.909-2.715c0.493-0.605,0.943-1.243,1.375-1.883
			c0.213-0.315,0.343-0.685,0.428-0.861c0.22-1.158-0.345-1.854-1.325-1.803c-0.301,0.017-0.614,0.1-0.885,0.232
			c-0.414,0.202-0.814,0.448-1.189,0.724c-1.077,0.793-2.025,1.725-2.87,2.765c-0.836,1.042-1.62,2.182-2.193,3.421
			c-0.641,1.314-1.181,2.679-1.642,4.079c-0.223,0.701-0.457,1.406-0.618,2.126c-0.157,0.72-0.297,1.446-0.422,2.177
			c-0.266,1.55-0.432,3.093-0.497,4.621c-0.02,1.532,0.112,3.052,0.313,4.545c0.353,2.987,1.349,5.883,2.675,8.619
			c0.444,0.897,0.885,1.755,1.438,2.568c0.555,0.813,1.148,1.581,1.784,2.301c1.272,1.439,2.713,2.681,4.358,3.692
			C76.433,225.999,76.731,226.162,77.044,226.251z"/>
		<path fill="#7F3244" d="M93.09,121.189c-0.1-0.592-0.416-1.041-1.033-1.151c-0.622-0.109-1.081,0.266-1.481,0.744
			c-0.126,0.151-0.236,0.332-0.304,0.514c-0.309,0.823-0.636,1.64-0.882,2.471c-0.354,1.247-0.671,2.465-0.961,3.729
			c-0.561,2.342-1.205,4.619-1.929,6.854c-0.644,2.286-1.386,4.52-2.252,6.709c-0.507,1.401-1.026,2.794-1.598,4.159
			c-0.553,1.374-1.204,2.698-1.725,4.088c-0.821,2.094-1.827,4.081-2.842,6.061c-0.979,1.996-2.088,3.932-3.297,5.84
			c-0.435,0.757-0.822,1.553-1.177,2.358c-0.162,0.368-0.263,0.798-0.267,1.196c-0.011,1.042,0.91,1.581,1.802,1.099
			c0.276-0.149,0.543-0.357,0.748-0.597c0.629-0.736,1.29-1.447,1.816-2.245c2.388-3.381,4.294-6.956,6.606-11.514
			c0.511-1.441,1.602-3.722,2.621-6.052c2.128-4.748,3.757-9.6,5.015-14.735c0.285-1.308,0.61-2.572,0.839-3.867
			c0.229-1.294,0.377-2.609,0.405-3.95C93.207,122.329,93.183,121.747,93.09,121.189z"/>
		<path fill="#7F3244" d="M80.815,193.992c-1.873-1.208-4.417-0.686-5.495,1.169l-0.652,1.15c-0.293,0.539-0.459,1.111-0.498,1.68
			c-0.014,0.572,0.091,1.14,0.3,1.664c0.418,1.05,1.254,1.923,2.393,2.35c1.158,0.435,2.574,0.333,3.751-0.333
			c0.588-0.333,1.117-0.808,1.524-1.432c0.401-0.626,0.685-1.401,0.856-2.334C83.168,196.467,82.435,195.034,80.815,193.992z"/>
		<path fill="#7F3244" d="M78.739,132.466c0.21,0.084,0.532,0.263,0.882,0.344c1.972,0.457,3.658-0.073,5.115-1.758
			c1.404-1.675,1.649-3.555,0.985-5.504c-0.46-1.344-1.403-2.183-2.777-2.361c-1.686-0.219-3.199,0.219-4.483,1.911
			c-0.808,1.076-1.398,2.153-1.558,3.419C76.707,130.272,77.332,131.538,78.739,132.466z"/>
		<path fill="#7F3244" d="M156.926,71.802c1.145-0.561,2.181-1.535,2.714-2.945c0.71-1.9-0.018-3.654-1.952-4.479
			c-0.255-0.109-0.516-0.209-0.779-0.307c-2.628-0.996-6.688,1.067-6.692,4.49C150.234,71.303,153.796,73.115,156.926,71.802z"/>
		<path fill="#7F3244" d="M142.634,90.642c-0.465-0.012-0.938,0.024-1.406,0.082c-2.251,0.294-4.899,3.125-2.995,6.11
			c0.993,1.491,3.046,2.245,4.742,1.766c1.831-0.513,3.076-2.527,3.013-4.553C145.924,92.172,144.568,90.712,142.634,90.642z"/>
		<path fill="#7F3244" d="M319.624,110.975c1.055,0.577,2.11,1.177,3.209,1.697c2.264,1.171,4.426,2.551,6.501,4.092
			c1.973,1.629,3.876,3.408,5.595,5.39c1.615,2.015,3.187,4.063,4.514,6.261c1.272,2.236,2.504,4.48,3.418,6.882
			c0.821,2.222,1.554,4.424,2.016,6.682c0.422,2.28,0.67,4.559,0.706,6.825c-0.015,1.06-0.029,2.119-0.044,3.171
			c0,0.414,0.083,0.827,0.106,1.044c0.411,0.931,1.084,1.195,1.739,0.743c0.364-0.252,0.723-0.635,0.874-1.046
			c0.332-0.902,0.609-1.851,0.753-2.821c0.141-0.979,0.24-1.983,0.245-2.981c-0.015-0.988-0.094-1.985-0.238-2.987
			c-1.275-9.269-5.447-18.015-11.967-25.159c-1.839-1.908-3.709-3.725-5.812-5.243c-2.128-1.495-4.265-2.895-6.61-3.98
			c-1.345-0.622-2.732-0.955-4.111-1.277c-0.849-0.199-1.546,0.211-1.755,0.918C318.56,109.872,318.874,110.565,319.624,110.975z"/>
		<path fill="#7F3244" d="M234.708,70.944c1.068,0.328,2.112,0.704,3.126,1.131c1.014,0.427,1.998,0.906,2.947,1.442
			c0.95,0.534,1.848,1.217,2.715,1.909c0.605,0.493,1.243,0.943,1.883,1.375c0.315,0.213,0.685,0.343,0.861,0.428
			c1.158,0.22,1.854-0.345,1.803-1.325c-0.017-0.301-0.1-0.614-0.232-0.885c-0.202-0.414-0.448-0.814-0.724-1.189
			c-0.792-1.077-1.725-2.025-2.765-2.87c-1.042-0.836-2.182-1.62-3.421-2.193c-1.314-0.641-2.679-1.181-4.079-1.642
			c-0.701-0.223-1.406-0.457-2.126-0.618c-0.72-0.157-1.446-0.297-2.177-0.422c-1.55-0.266-3.093-0.432-4.621-0.497
			c-1.532-0.02-3.052,0.112-4.545,0.313c-2.987,0.354-5.883,1.349-8.619,2.675c-0.897,0.444-1.755,0.885-2.568,1.438
			c-0.813,0.555-1.581,1.148-2.301,1.784c-1.439,1.272-2.681,2.713-3.692,4.358c-0.172,0.279-0.334,0.577-0.424,0.891
			c-0.178,0.624,0.018,1.184,0.493,1.618c0.5,0.457,1.08,0.592,1.675,0.284c0.326-0.169,0.626-0.418,0.895-0.68
			c0.854-0.845,1.716-1.698,2.572-2.545c1.218-1.206,2.587-2.124,4.104-2.881c1.225-0.607,2.481-1.143,3.765-1.602
			c1.284-0.459,2.593-0.722,3.928-0.962c1.334-0.224,2.693-0.362,4.07-0.404c1.371,0.027,2.761,0.152,4.162,0.379
			C232.533,70.441,233.636,70.647,234.708,70.944z"/>
		<path fill="#7F3244" d="M311.963,92.057c0.109-0.622-0.266-1.081-0.744-1.481c-0.151-0.126-0.332-0.236-0.514-0.304
			c-0.823-0.309-1.64-0.636-2.471-0.882c-1.247-0.354-2.465-0.671-3.729-0.961c-2.342-0.561-4.619-1.205-6.854-1.929
			c-2.286-0.644-4.52-1.386-6.709-2.252c-1.401-0.507-2.794-1.026-4.159-1.598c-1.374-0.553-2.698-1.204-4.089-1.725
			c-2.094-0.821-4.081-1.827-6.061-2.842c-1.996-0.979-3.932-2.088-5.84-3.297c-0.757-0.435-1.553-0.822-2.358-1.177
			c-0.368-0.162-0.798-0.263-1.196-0.267c-1.042-0.011-1.581,0.91-1.099,1.802c0.148,0.275,0.357,0.543,0.597,0.748
			c0.736,0.629,1.447,1.29,2.245,1.816c3.381,2.388,6.956,4.294,11.514,6.606c1.441,0.511,3.722,1.602,6.052,2.621
			c4.748,2.128,9.6,3.757,14.735,5.015c1.308,0.285,2.572,0.61,3.867,0.839c1.294,0.229,2.609,0.377,3.95,0.405
			c0.572,0.012,1.154-0.012,1.713-0.105C311.403,92.991,311.852,92.675,311.963,92.057z"/>
		<path fill="#7F3244" d="M238.008,80.815c1.208-1.873,0.686-4.417-1.169-5.495l-1.15-0.652c-0.539-0.293-1.111-0.459-1.68-0.498
			c-0.572-0.014-1.14,0.091-1.664,0.3c-1.05,0.418-1.923,1.254-2.35,2.393c-0.435,1.158-0.333,2.574,0.333,3.751
			c0.333,0.588,0.808,1.117,1.432,1.524c0.626,0.401,1.401,0.685,2.334,0.856C235.533,83.168,236.966,82.435,238.008,80.815z"/>
		<path fill="#7F3244" d="M306.451,85.721c1.344-0.46,2.183-1.403,2.361-2.777c0.219-1.686-0.219-3.199-1.911-4.483
			c-1.076-0.808-2.153-1.398-3.419-1.558c-1.754-0.195-3.02,0.43-3.948,1.836c-0.084,0.21-0.263,0.532-0.344,0.882
			c-0.457,1.972,0.073,3.658,1.758,5.115C302.623,86.139,304.503,86.385,306.451,85.721z"/>
		<path fill="#7F3244" d="M363.439,150.217c-2.742,0.017-4.554,3.58-3.241,6.709c0.561,1.145,1.535,2.181,2.945,2.714
			c1.9,0.71,3.654-0.018,4.479-1.952c0.109-0.255,0.209-0.516,0.307-0.779C368.925,154.281,366.862,150.22,363.439,150.217z"/>
		<path fill="#7F3244" d="M341.358,142.634c0.012-0.465-0.024-0.938-0.082-1.406c-0.294-2.251-3.125-4.899-6.11-2.995
			c-1.491,0.993-2.245,3.046-1.766,4.742c0.513,1.831,2.527,3.076,4.553,3.013C339.828,145.924,341.288,144.568,341.358,142.634z"/>
	</g>
</g>
</svg>
